<svg xmlns="http://www.w3.org/2000/svg" width="683" height="590" viewBox="0 0 683 590">
  <g id="Rectangle_309" data-name="Rectangle 309" fill="#8358e8" stroke="#707070" stroke-width="1" opacity="0.19">
    <rect width="683" height="590" rx="50" stroke="none"/>
    <rect x="0.5" y="0.5" width="682" height="589" rx="49.5" fill="none"/>
  </g>
  <rect id="Rectangle_310" data-name="Rectangle 310" width="631" height="329" rx="20" transform="translate(26 131)" fill="#fff"/>
  <rect id="Rectangle_317" data-name="Rectangle 317" width="246" height="32" rx="7" transform="translate(219 171)" fill="#e6eaf5"/>
  <rect id="Rectangle_318" data-name="Rectangle 318" width="543" height="21" rx="7" transform="translate(63 416)" fill="#e6eaf5"/>
  <path id="Path_149" data-name="Path 149" d="M176,15750.58s64.362-24.036,86.681-41.205,87.56-32.621,128.765-36.055,127.048-8.585,161.386-25.753,151.085-34.337,151.085-34.337" transform="translate(-113 -15376)" fill="none" stroke="#8358e8" stroke-width="5" stroke-dasharray="10" opacity="0.22"/>
  <path id="Path_150" data-name="Path 150" d="M176,15768.814s47.193-7.924,101.341-22.451,265.455-31.7,265.455-31.7,149.236-21.131,169.046-43.582" transform="translate(-113 -15376)" fill="none" stroke="#e85858" stroke-width="3" stroke-dasharray="10" opacity="0.22"/>
</svg>
