<svg xmlns="http://www.w3.org/2000/svg" xmlns:xlink="http://www.w3.org/1999/xlink" width="683" height="590" viewBox="0 0 683 590">
  <defs>
    <linearGradient id="linear-gradient" x1="0.5" x2="0.5" y2="1" gradientUnits="objectBoundingBox">
      <stop offset="0" stop-color="#8358e8"/>
      <stop offset="1" stop-color="#4c72e6"/>
    </linearGradient>
  </defs>
  <g id="Rectangle_284" data-name="Rectangle 284" fill="#8358e8" stroke="#707070" stroke-width="1" opacity="0.19">
    <rect width="683" height="590" rx="50" stroke="none"/>
    <rect x="0.5" y="0.5" width="682" height="589" rx="49.5" fill="none"/>
  </g>
  <rect id="Rectangle_285" data-name="Rectangle 285" width="631" height="341" rx="20" transform="translate(23 109)" fill="#fff"/>
  <rect id="Rectangle_286" data-name="Rectangle 286" width="429" height="244" rx="20" transform="translate(127 171)" fill="#ececec"/>
  <rect id="Rectangle_287" data-name="Rectangle 287" width="113" height="109" rx="20" transform="translate(153 193)" fill="#fff"/>
  <rect id="Rectangle_288" data-name="Rectangle 288" width="113" height="109" rx="20" transform="translate(284 193)" fill="#fff"/>
  <rect id="Rectangle_289" data-name="Rectangle 289" width="113" height="109" rx="20" transform="translate(415 193)" fill="#fff"/>
  <rect id="Rectangle_290" data-name="Rectangle 290" width="113" height="118" rx="20" transform="translate(153 321)" fill="#fff"/>
  <g id="upgrade_black_24dp" transform="translate(230 194)">
    <rect id="Rectangle_291" data-name="Rectangle 291" width="217" height="217" fill="none"/>
    <path id="Path_144" data-name="Path 144" d="M80.333,130.583v18.083H8V130.583ZM35.125,40.076V112.5H53.208V40.076H80.333L44.167,4,8,40.076Z" transform="translate(64.333 32.167)" fill="url(#linear-gradient)"/>
  </g>
  <rect id="Rectangle_292" data-name="Rectangle 292" width="429" height="32" rx="7" transform="translate(127 126)" fill="#e6eaf5"/>
</svg>
