<svg xmlns="http://www.w3.org/2000/svg" xmlns:xlink="http://www.w3.org/1999/xlink" width="683" height="590" viewBox="0 0 683 590">
  <defs>
    <linearGradient id="linear-gradient" x1="0.5" x2="0.5" y2="1" gradientUnits="objectBoundingBox">
      <stop offset="0" stop-color="#4c72e6"/>
      <stop offset="1" stop-color="#8358e8"/>
    </linearGradient>
  </defs>
  <g id="Rectangle_300" data-name="Rectangle 300" fill="#8358e8" stroke="#707070" stroke-width="1" opacity="0.19">
    <rect width="683" height="590" rx="50" stroke="none"/>
    <rect x="0.5" y="0.5" width="682" height="589" rx="49.5" fill="none"/>
  </g>
  <rect id="Rectangle_301" data-name="Rectangle 301" width="631" height="111" rx="20" transform="translate(19 103)" fill="#fff"/>
  <g id="Rectangle_302" data-name="Rectangle 302" transform="translate(483 133)" fill="#8358e8" stroke="#707070" stroke-width="1" opacity="0.19">
    <rect width="128" height="50" rx="25" stroke="none"/>
    <rect x="0.5" y="0.5" width="127" height="49" rx="24.5" fill="none"/>
  </g>
  <rect id="Rectangle_303" data-name="Rectangle 303" width="418" height="50" rx="7" transform="translate(54 133)" fill="#e6eaf5"/>
  <g id="flare_black_24dp_1_" data-name="flare_black_24dp (1)" transform="translate(485 115.702)">
    <path id="Path_147" data-name="Path 147" d="M0,0H49.436V49.436H0Z" fill="none"/>
    <path id="Path_148" data-name="Path 148" d="M13.359,21.6H1v4.12H13.359Zm4.47-6.674-4.367-4.367-2.9,2.9,4.367,4.367ZM25.718,1H21.6V13.359h4.12ZM36.758,13.462l-2.9-2.9-4.367,4.367,2.9,2.9Zm-2.8,8.136v4.12H46.316V21.6Zm-10.3-4.12a6.179,6.179,0,1,0,6.179,6.179A6.171,6.171,0,0,0,23.658,17.479Zm5.829,14.913,4.367,4.367,2.9-2.9-4.367-4.367-2.9,2.9Zm-18.93,1.462,2.9,2.9,4.367-4.367-2.9-2.9-4.367,4.367ZM21.6,46.316h4.12V33.957H21.6Z" transform="translate(1.06 1.06)" fill="url(#linear-gradient)"/>
  </g>
  <g id="flare_black_24dp_1_2" data-name="flare_black_24dp (1)" transform="translate(586 165.138)">
    <path id="Path_147-2" data-name="Path 147" d="M0,0H28V28H0Z" fill="none"/>
    <path id="Path_148-2" data-name="Path 148" d="M8,12.667H1V15H8Zm2.532-3.78L8.058,6.413,6.413,8.058l2.473,2.473ZM15,1H12.667V8H15Zm6.253,7.058L19.608,6.413,17.135,8.887l1.645,1.645Zm-1.587,4.608V15h7V12.667Zm-5.833-2.333a3.5,3.5,0,1,0,3.5,3.5A3.5,3.5,0,0,0,13.833,10.333Zm3.3,8.447,2.473,2.473,1.645-1.645L18.78,17.135,17.135,18.78Zm-10.722.828,1.645,1.645,2.473-2.473L8.887,17.135,6.413,19.608Zm6.253,7.058H15v-7H12.667Z" transform="translate(0.167 0.167)" fill="url(#linear-gradient)"/>
  </g>
  <g id="flare_black_24dp_1_3" data-name="flare_black_24dp (1)" transform="translate(565 158)">
    <path id="Path_147-3" data-name="Path 147" d="M0,0H14V14H0Z" fill="none"/>
    <path id="Path_148-3" data-name="Path 148" d="M4.5,6.833H1V8H4.5Zm1.266-1.89L4.529,3.707l-.822.822L4.943,5.766ZM8,1H6.833V4.5H8Zm3.127,3.529L10.3,3.707,9.068,4.943l.823.822Zm-.793,2.3V8h3.5V6.833ZM7.417,5.667a1.75,1.75,0,1,0,1.75,1.75A1.748,1.748,0,0,0,7.417,5.667ZM9.068,9.89,10.3,11.127l.822-.822L9.89,9.068l-.823.823ZM3.707,10.3l.822.823L5.766,9.89l-.822-.823L3.707,10.3Zm3.127,3.529H8v-3.5H6.833Z" transform="translate(-0.417 -0.417)" fill="url(#linear-gradient)"/>
  </g>
  <rect id="Rectangle_304" data-name="Rectangle 304" width="631" height="111" rx="20" transform="translate(19 240)" fill="#fff"/>
  <rect id="Rectangle_306" data-name="Rectangle 306" width="560" height="50" rx="7" transform="translate(54 270)" fill="#e6eaf5"/>
  <rect id="Rectangle_307" data-name="Rectangle 307" width="631" height="111" rx="20" transform="translate(19 378)" fill="#fff"/>
  <rect id="Rectangle_308" data-name="Rectangle 308" width="560" height="50" rx="7" transform="translate(54 408)" fill="#e6eaf5"/>
</svg>
