<svg id="article_black_24dp_1_" data-name="article_black_24dp (1)" xmlns="http://www.w3.org/2000/svg" width="27" height="27" viewBox="0 0 27 27">
  <rect id="Rectangle_229" data-name="Rectangle 229" width="27" height="27" fill="none"/>
  <g id="Group_24" data-name="Group 24" transform="translate(3.35 3.35)">
    <path id="Path_112" data-name="Path 112" d="M20.867,5.233V20.867H5.233V5.233H20.867m0-2.233H5.233A2.24,2.24,0,0,0,3,5.233V20.867A2.24,2.24,0,0,0,5.233,23.1H20.867A2.24,2.24,0,0,0,23.1,20.867V5.233A2.24,2.24,0,0,0,20.867,3Z" transform="translate(-3 -3)" fill="#fff"/>
  </g>
  <path id="Path_113" data-name="Path 113" d="M14.817,18.167H7V15.933h7.817Zm3.35-4.467H7V11.467H18.167Zm0-4.467H7V7H18.167Z" transform="translate(0.817 0.817)" fill="#fff"/>
</svg>
