<svg xmlns="http://www.w3.org/2000/svg" width="32" height="28" viewBox="0 0 32 28">
  <g id="psychology_black_24dp" transform="translate(0 0.153)">
    <g id="Group_25" data-name="Group 25" transform="translate(0 -0.154)">
      <rect id="Rectangle_230" data-name="Rectangle 230" width="32" height="28" transform="translate(0 0)" fill="none"/>
    </g>
    <g id="Group_27" data-name="Group 27" transform="translate(6.415 3.572)">
      <g id="Group_26" data-name="Group 26">
        <path id="Path_114" data-name="Path 114" d="M16.935,7.423l-1.166.467a3.5,3.5,0,0,0-.781-.455L14.813,6.2A.237.237,0,0,0,14.58,6H12.713a.217.217,0,0,0-.222.2l-.175,1.236a3.262,3.262,0,0,0-.781.455l-1.166-.467a.225.225,0,0,0-.28.1L9.156,9.137a.234.234,0,0,0,.058.3l.991.77a1.944,1.944,0,0,0-.058.455,2.987,2.987,0,0,0,.035.455l-.98.77a.221.221,0,0,0-.058.292l.933,1.621a.24.24,0,0,0,.292.1l1.155-.467a3.336,3.336,0,0,0,.793.455l.163,1.236a.237.237,0,0,0,.233.2H14.58a.237.237,0,0,0,.233-.2l.175-1.236a3.262,3.262,0,0,0,.781-.455l1.155.467a.214.214,0,0,0,.28-.1l.933-1.621a.219.219,0,0,0-.058-.292l-.968-.77a2.987,2.987,0,0,0,.035-.455,2.771,2.771,0,0,0-.035-.455l.991-.77a.234.234,0,0,0,.058-.3l-.933-1.609A.245.245,0,0,0,16.935,7.423Zm-3.289,4.91a1.668,1.668,0,1,1,1.668-1.668A1.667,1.667,0,0,1,13.646,12.333Z" transform="translate(-3.15 -2.501)" fill="#fff"/>
        <path id="Path_115" data-name="Path 115" d="M22.591,10.068a8.238,8.238,0,0,0-7.616-7.056C14.812,3,14.66,3,14.5,3a8.159,8.159,0,0,0-8.071,7L4.175,14.057a1.164,1.164,0,0,0,.991,1.773H6.333v2.333a2.339,2.339,0,0,0,2.333,2.333H9.831v3.5H18V18.535A8.182,8.182,0,0,0,22.591,10.068Zm-5.89,6.5-1.038.49v4.607h-3.5v-3.5h-3.5V13.5H7.149L8.7,10.779a5.821,5.821,0,1,1,8,5.785Z" transform="translate(-4 -3)" fill="#fff"/>
      </g>
    </g>
  </g>
</svg>
