<svg xmlns="http://www.w3.org/2000/svg" width="1348" height="100" viewBox="0 0 1348 100">
  <text id="Flashcards" transform="translate(47 32.5)" fill="#7b7b7b" font-size="24" font-family="SegoeUI-Semibold, Segoe UI" font-weight="600"><tspan x="0" y="0">Flashcards</tspan></text>
  <g id="article_black_24dp_1_" data-name="article_black_24dp (1)" transform="translate(6 11.5)">
    <rect id="Rectangle_229" data-name="Rectangle 229" width="27" height="27" fill="none"/>
    <g id="Group_24" data-name="Group 24" transform="translate(3.35 3.35)">
      <path id="Path_112" data-name="Path 112" d="M20.867,5.233V20.867H5.233V5.233H20.867m0-2.233H5.233A2.24,2.24,0,0,0,3,5.233V20.867A2.24,2.24,0,0,0,5.233,23.1H20.867A2.24,2.24,0,0,0,23.1,20.867V5.233A2.24,2.24,0,0,0,20.867,3Z" transform="translate(-3 -3)" fill="#7b7b7b"/>
    </g>
    <path id="Path_113" data-name="Path 113" d="M14.817,18.167H7V15.933h7.817Zm3.35-4.467H7V11.467H18.167Zm0-4.467H7V7H18.167Z" transform="translate(0.817 0.817)" fill="#7b7b7b"/>
  </g>
  <path id="Rectangle_255" data-name="Rectangle 255" d="M0,0H1115a14,14,0,0,1,14,14v0a14,14,0,0,1-14,14H0a0,0,0,0,1,0,0V0A0,0,0,0,1,0,0Z" transform="translate(177 11.5)" fill="#8358e8"/>
  <line id="Line_75" data-name="Line 75" y2="50" transform="translate(177.5)" fill="none" stroke="#707070" stroke-width="1"/>
  <text id="Recall" transform="translate(46 85.5)" fill="#7b7b7b" font-size="24" font-family="SegoeUI-Semibold, Segoe UI" font-weight="600"><tspan x="0" y="0">Recall</tspan></text>
  <g id="psychology_black_24dp" transform="translate(0 58.653)">
    <g id="Group_25" data-name="Group 25" transform="translate(0 -0.153)">
      <rect id="Rectangle_230" data-name="Rectangle 230" width="38" height="33" transform="translate(0 0)" fill="none"/>
    </g>
    <g id="Group_27" data-name="Group 27" transform="translate(7.563 4.238)">
      <g id="Group_26" data-name="Group 26">
        <path id="Path_114" data-name="Path 114" d="M18.335,7.677l-1.375.55a4.132,4.132,0,0,0-.921-.536l-.206-1.457A.28.28,0,0,0,15.558,6h-2.2a.256.256,0,0,0-.261.234L12.89,7.691a3.845,3.845,0,0,0-.921.536l-1.375-.55a.265.265,0,0,0-.33.124l-1.1,1.9a.275.275,0,0,0,.069.357l1.169.907a2.291,2.291,0,0,0-.069.536,3.521,3.521,0,0,0,.041.536l-1.155.907a.261.261,0,0,0-.069.344l1.1,1.911a.283.283,0,0,0,.344.124l1.361-.55a3.933,3.933,0,0,0,.935.536l.192,1.457a.28.28,0,0,0,.275.234h2.2a.28.28,0,0,0,.275-.234l.206-1.457a3.845,3.845,0,0,0,.921-.536l1.361.55a.252.252,0,0,0,.33-.124l1.1-1.911a.258.258,0,0,0-.069-.344l-1.141-.907a3.522,3.522,0,0,0,.041-.536,3.267,3.267,0,0,0-.041-.536l1.169-.907a.275.275,0,0,0,.069-.357l-1.1-1.9A.288.288,0,0,0,18.335,7.677Zm-3.877,5.789A1.966,1.966,0,1,1,16.424,11.5,1.966,1.966,0,0,1,14.458,13.466Z" transform="translate(-2.083 -1.875)" fill="#7b7b7b"/>
        <path id="Path_115" data-name="Path 115" d="M25.917,11.332a9.712,9.712,0,0,0-8.979-8.319C16.746,3,16.567,3,16.375,3A9.618,9.618,0,0,0,6.86,11.25L4.206,16.035a1.372,1.372,0,0,0,1.169,2.09H6.75v2.75a2.758,2.758,0,0,0,2.75,2.75h1.375v4.125H20.5V21.315A9.646,9.646,0,0,0,25.917,11.332Zm-6.944,7.659-1.224.577V25H13.625V20.875H9.5v-5.5H7.712l1.829-3.2a6.862,6.862,0,1,1,9.432,6.82Z" transform="translate(-4 -3)" fill="#7b7b7b"/>
      </g>
    </g>
  </g>
  <text id="_24" data-name="24" transform="translate(1320 32.5)" fill="#7b7b7b" font-size="24" font-family="SegoeUI-Semibold, Segoe UI" font-weight="600"><tspan x="0" y="0">24</tspan></text>
  <path id="Rectangle_256" data-name="Rectangle 256" d="M0,0H513a14,14,0,0,1,14,14v0a14,14,0,0,1-14,14H0a0,0,0,0,1,0,0V0A0,0,0,0,1,0,0Z" transform="translate(177 61.5)" fill="#e85871"/>
  <line id="Line_76" data-name="Line 76" y2="50" transform="translate(177.5 50)" fill="none" stroke="#707070" stroke-width="1"/>
  <text id="_12" data-name="12" transform="translate(719 83.5)" fill="#7b7b7b" font-size="24" font-family="SegoeUI-Semibold, Segoe UI" font-weight="600"><tspan x="0" y="0">12</tspan></text>
</svg>
