<svg xmlns="http://www.w3.org/2000/svg" width="38" height="33" viewBox="0 0 38 33">
  <g id="psychology_black_24dp" transform="translate(0 0.154)">
    <g id="Group_25" data-name="Group 25" transform="translate(0 -0.153)">
      <rect id="Rectangle_230" data-name="Rectangle 230" width="38" height="33" transform="translate(0 0)" fill="none"/>
    </g>
    <g id="Group_27" data-name="Group 27" transform="translate(7.563 4.238)">
      <g id="Group_26" data-name="Group 26">
        <path id="Path_114" data-name="Path 114" d="M18.335,7.677l-1.375.55a4.132,4.132,0,0,0-.921-.536l-.206-1.457A.28.28,0,0,0,15.558,6h-2.2a.256.256,0,0,0-.261.234L12.89,7.691a3.845,3.845,0,0,0-.921.536l-1.375-.55a.265.265,0,0,0-.33.124l-1.1,1.9a.275.275,0,0,0,.069.357l1.169.907a2.291,2.291,0,0,0-.069.536,3.521,3.521,0,0,0,.041.536l-1.155.907a.261.261,0,0,0-.069.344l1.1,1.911a.283.283,0,0,0,.344.124l1.361-.55a3.933,3.933,0,0,0,.935.536l.192,1.457a.28.28,0,0,0,.275.234h2.2a.28.28,0,0,0,.275-.234l.206-1.457a3.845,3.845,0,0,0,.921-.536l1.361.55a.252.252,0,0,0,.33-.124l1.1-1.911a.258.258,0,0,0-.069-.344l-1.141-.907a3.522,3.522,0,0,0,.041-.536,3.267,3.267,0,0,0-.041-.536l1.169-.907a.275.275,0,0,0,.069-.357l-1.1-1.9A.288.288,0,0,0,18.335,7.677Zm-3.877,5.789A1.966,1.966,0,1,1,16.424,11.5,1.966,1.966,0,0,1,14.458,13.466Z" transform="translate(-2.083 -1.875)" fill="#7b7b7b"/>
        <path id="Path_115" data-name="Path 115" d="M25.917,11.332a9.712,9.712,0,0,0-8.979-8.319C16.746,3,16.567,3,16.375,3A9.618,9.618,0,0,0,6.86,11.25L4.206,16.035a1.372,1.372,0,0,0,1.169,2.09H6.75v2.75a2.758,2.758,0,0,0,2.75,2.75h1.375v4.125H20.5V21.315A9.646,9.646,0,0,0,25.917,11.332Zm-6.944,7.659-1.224.577V25H13.625V20.875H9.5v-5.5H7.712l1.829-3.2a6.862,6.862,0,1,1,9.432,6.82Z" transform="translate(-4 -3)" fill="#7b7b7b"/>
      </g>
    </g>
  </g>
</svg>
