<svg id="flare_black_24dp" xmlns="http://www.w3.org/2000/svg" width="24" height="24" viewBox="0 0 24 24">
  <path id="Path_123" data-name="Path 123" d="M0,0H24V24H0Z" fill="none"/>
  <path id="Path_124" data-name="Path 124" d="M7,11H1v2H7ZM9.17,7.76,7.05,5.64,5.64,7.05,7.76,9.17ZM13,1H11V7h2Zm5.36,6.05L16.95,5.64,14.83,7.76l1.41,1.41ZM17,11v2h6V11ZM12,9a3,3,0,1,0,3,3A3,3,0,0,0,12,9Zm2.83,7.24,2.12,2.12,1.41-1.41-2.12-2.12-1.41,1.41Zm-9.19.71,1.41,1.41,2.12-2.12L7.76,14.83,5.64,16.95ZM11,23h2V17H11Z" fill="#c5c5c5"/>
</svg>
