<svg xmlns="http://www.w3.org/2000/svg" xmlns:xlink="http://www.w3.org/1999/xlink" width="849.405" height="323.218" viewBox="0 0 849.405 323.218">
  <defs>
    <filter id="Ellipse_37" x="0" y="251.718" width="66" height="66" filterUnits="userSpaceOnUse">
      <feOffset input="SourceAlpha"/>
      <feGaussianBlur stdDeviation="7.5" result="blur"/>
      <feFlood flood-color="#8358e8"/>
      <feComposite operator="in" in2="blur"/>
      <feComposite in="SourceGraphic"/>
    </filter>
    <filter id="Recall" x="42.5" y="261.218" width="66" height="42" filterUnits="userSpaceOnUse">
      <feOffset input="SourceAlpha"/>
      <feGaussianBlur stdDeviation="3" result="blur-2"/>
      <feFlood flood-opacity="0.161"/>
      <feComposite operator="in" in2="blur-2"/>
      <feComposite in="SourceGraphic"/>
    </filter>
    <filter id="Path_127" x="67" y="100.084" width="782.405" height="115.021" filterUnits="userSpaceOnUse">
      <feOffset input="SourceAlpha"/>
      <feGaussianBlur stdDeviation="3" result="blur-3"/>
      <feFlood flood-color="#8358e8"/>
      <feComposite operator="in" in2="blur-3"/>
      <feComposite in="SourceGraphic"/>
    </filter>
  </defs>
  <line id="Line_67" data-name="Line 67" x2="761.731" transform="translate(80.043 204.606)" fill="none" stroke="#707070" stroke-width="3" opacity="0.24"/>
  <line id="Line_68" data-name="Line 68" x2="761.731" transform="translate(80.043 157.92)" fill="none" stroke="#707070" stroke-width="3" opacity="0.24"/>
  <line id="Line_69" data-name="Line 69" x2="761.731" transform="translate(80.043 111.234)" fill="none" stroke="#707070" stroke-width="3" opacity="0.24"/>
  <line id="Line_70" data-name="Line 70" x2="761.731" transform="translate(80.043 64.548)" fill="none" stroke="#707070" stroke-width="3" opacity="0.24"/>
  <line id="Line_71" data-name="Line 71" x2="761.731" y2="1.906" transform="translate(80.043 17.863)" fill="none" stroke="#ddd" stroke-width="3"/>
  <text id="_07_am" data-name="07 am" transform="translate(132.959 237.374)" fill="#919191" font-size="18" font-family="Dubai-Medium, Dubai" font-weight="500"><tspan x="0" y="0">07 am</tspan></text>
  <text id="_08_am" data-name="08 am" transform="translate(232.378 237.374)" fill="#919191" font-size="18" font-family="Dubai-Medium, Dubai" font-weight="500"><tspan x="0" y="0">08 am</tspan></text>
  <text id="_09_am" data-name="09 am" transform="translate(331.796 237.374)" fill="#919191" font-size="18" font-family="Dubai-Medium, Dubai" font-weight="500"><tspan x="0" y="0">09 am</tspan></text>
  <text id="_10_am" data-name="10 am" transform="translate(431.215 237.374)" fill="#919191" font-size="18" font-family="Dubai-Medium, Dubai" font-weight="500"><tspan x="0" y="0">10 am</tspan></text>
  <text id="_11_am" data-name="11 am" transform="translate(542.914 237.374)" fill="#919191" font-size="18" font-family="Dubai-Medium, Dubai" font-weight="500"><tspan x="0" y="0">11 am</tspan></text>
  <text id="_12_pm" data-name="12 pm" transform="translate(663.592 237.374)" fill="#919191" font-size="18" font-family="Dubai-Medium, Dubai" font-weight="500"><tspan x="0" y="0">12 pm</tspan></text>
  <text id="_150m" data-name="150m" transform="translate(20 19)" fill="#919191" font-size="18" font-family="SegoeUI-Semibold, Segoe UI" font-weight="600"><tspan x="0" y="0">150m</tspan></text>
  <text id="_120m" data-name="120m" transform="translate(20 65.686)" fill="#919191" font-size="18" font-family="SegoeUI-Semibold, Segoe UI" font-weight="600"><tspan x="0" y="0">120m</tspan></text>
  <text id="_60m" data-name="60m" transform="translate(22.5 112.372)" fill="#919191" font-size="18" font-family="SegoeUI-Semibold, Segoe UI" font-weight="600"><tspan x="0" y="0">60m</tspan></text>
  <text id="_30m" data-name="30m" transform="translate(22.5 159.057)" fill="#919191" font-size="18" font-family="SegoeUI-Semibold, Segoe UI" font-weight="600"><tspan x="0" y="0">30m</tspan></text>
  <text id="_0m" data-name="0m" transform="translate(27.482 205.743)" fill="#919191" font-size="18" font-family="SegoeUI-Semibold, Segoe UI" font-weight="600"><tspan x="0" y="0">0m</tspan></text>
  <g transform="matrix(1, 0, 0, 1, 0, 0)" filter="url(#Ellipse_37)">
    <circle id="Ellipse_37-2" data-name="Ellipse 37" cx="10.5" cy="10.5" r="10.5" transform="translate(22.5 274.22)" fill="#8358e8"/>
  </g>
  <g transform="matrix(1, 0, 0, 1, 0, 0)" filter="url(#Recall)">
    <text id="Recall-2" data-name="Recall" transform="translate(51.5 289.22)" fill="#8358e8" font-size="18" font-family="SegoeUI-Semibold, Segoe UI" font-weight="600"><tspan x="0" y="0">Recall</tspan></text>
  </g>
  <text id="_1_pm" data-name="1 pm" transform="translate(780.17 237.374)" fill="#919191" font-size="18" font-family="Dubai-Medium, Dubai" font-weight="500"><tspan x="0" y="0">1 pm</tspan></text>
  <g transform="matrix(1, 0, 0, 1, 0, 0)" filter="url(#Path_127)">
    <path id="Path_127-2" data-name="Path 127" d="M4677.5,9221.388h179.477v-94.021h98.732v94.021h486.2" transform="translate(-4601.5 -9016.78)" fill="none" stroke="#8358e8" stroke-width="3"/>
  </g>
  <path id="Path_128" data-name="Path 128" d="M4673,9221.388h379.783v-49.219h61.4v49.219h52.27v-49.219h59.737v49.219h214.889" transform="translate(-4601.5 -9016.782)" fill="none" stroke="#e85871" stroke-width="3"/>
  <circle id="Ellipse_38" data-name="Ellipse 38" cx="10.5" cy="10.5" r="10.5" transform="translate(22.5 302.218)" fill="#e85871"/>
  <text id="Flashcards" transform="translate(51.5 317.218)" fill="#e85871" font-size="18" font-family="SegoeUI-Semibold, Segoe UI" font-weight="600"><tspan x="0" y="0">Flashcards</tspan></text>
  <rect id="Rectangle_246" data-name="Rectangle 246" width="128" height="45" rx="10" transform="translate(278.5 54.218)" fill="#272727"/>
  <text id="_60_minutes" data-name="60 minutes" transform="translate(300.5 83.218)" fill="#fff" font-size="18" font-family="Dubai-Regular, Dubai"><tspan x="0" y="0">60 minutes</tspan></text>
  <path id="Polygon_8" data-name="Polygon 8" d="M8.4,4.484a3,3,0,0,1,5.193,0l5.8,10.012A3,3,0,0,1,16.8,19H5.2a3,3,0,0,1-2.6-4.5Z" transform="translate(311.5 112.218) rotate(180)" fill="#272727"/>
</svg>
