<svg id="notifications_none_black_24dp" xmlns="http://www.w3.org/2000/svg" width="30.604" height="30.604" viewBox="0 0 30.604 30.604">
  <path id="Path_65" data-name="Path 65" d="M0,0H30.6V30.6H0Z" fill="none"/>
  <path id="Path_66" data-name="Path 66" d="M16.358,29.792a2.964,2.964,0,0,0,3.09-2.8H13.269A2.964,2.964,0,0,0,16.358,29.792Zm9.269-8.4v-7a8.639,8.639,0,0,0-6.952-8.845V4.6a2.213,2.213,0,0,0-2.317-2.1,2.213,2.213,0,0,0-2.317,2.1v.952A8.643,8.643,0,0,0,7.09,14.4v7L4,24.194v1.4H28.717v-1.4Zm-3.09,1.4H10.179V14.4a5.982,5.982,0,0,1,6.179-6.3,5.982,5.982,0,0,1,6.179,6.3Z" transform="translate(-1.057 -0.66)" fill="#8358e8"/>
</svg>
