<svg xmlns="http://www.w3.org/2000/svg" width="24.437" height="32.932" viewBox="0 0 24.437 32.932">
  <g id="pending_actions_black_24dp" transform="translate(4.5)">
    <rect id="Rectangle_165" data-name="Rectangle 165" width="20.32" height="32.932" transform="translate(-2.748)" fill="none"/>
    <path id="Path_76" data-name="Path 76" d="M21.649,15.933a6.788,6.788,0,1,0,6.788,6.788A6.79,6.79,0,0,0,21.649,15.933Zm2.24,9.978L20.97,22.993V18.649h1.358v3.788l2.512,2.512Zm-.882-22.2H18.689a4.057,4.057,0,0,0-7.657,0H6.715A2.723,2.723,0,0,0,4,6.43V26.794a2.723,2.723,0,0,0,2.715,2.715H15.01a9.155,9.155,0,0,1-1.928-2.715H6.715V6.43H9.43V10.5H20.291V6.43h2.715v6.9a9.544,9.544,0,0,1,2.715.815V6.43A2.723,2.723,0,0,0,23.006,3.715ZM14.861,6.43a1.358,1.358,0,1,1,1.358-1.358A1.362,1.362,0,0,1,14.861,6.43Z" transform="translate(-8.5 0.358)" fill="#8358e8"/>
  </g>
</svg>
