<svg id="notifications_none_black_24dp" xmlns="http://www.w3.org/2000/svg" width="18.649" height="18.649" viewBox="0 0 18.649 18.649">
  <path id="Path_65" data-name="Path 65" d="M0,0H18.649V18.649H0Z" fill="none"/>
  <path id="Path_66" data-name="Path 66" d="M11.531,19.131a1.806,1.806,0,0,0,1.883-1.706H9.648A1.806,1.806,0,0,0,11.531,19.131Zm5.648-5.117V9.75a5.264,5.264,0,0,0-4.236-5.39v-.58A1.349,1.349,0,0,0,11.531,2.5a1.349,1.349,0,0,0-1.412,1.279v.58A5.267,5.267,0,0,0,5.883,9.75v4.264L4,15.72v.853H19.062V15.72Zm-1.883.853H7.765V9.75a3.646,3.646,0,0,1,3.765-3.838A3.646,3.646,0,0,1,15.3,9.75Z" transform="translate(-2.206 -1.379)" fill="#8358e8"/>
</svg>
