<svg xmlns="http://www.w3.org/2000/svg" width="23" height="21" viewBox="0 0 23 21">
  <path id="Polygon_4" data-name="Polygon 4" d="M15.054,0l1.589,3.7,4.161.306L19.821,7.9,23,10.5l-3.179,2.6.982,3.894-4.161.306L15.054,21,11.5,18.9,7.946,21,6.357,17.3,2.2,16.989,3.179,13.1,0,10.5,3.179,7.9,2.2,4.011,6.357,3.7,7.946,0,11.5,2.1Z" fill="#00b1ff"/>
  <g id="done_black_24dp" transform="translate(3.611 2.611)">
    <path id="Path_120" data-name="Path 120" d="M0,0H15.777V15.777H0Z" fill="none"/>
    <path id="Path_121" data-name="Path 121" d="M7.081,12.568,4.32,9.807l-.92.92,3.681,3.681L14.97,6.52l-.92-.92Z" transform="translate(-1.165 -1.919)" fill="#fff"/>
  </g>
</svg>
