<svg id="credit_score_black_24dp_1_" data-name="credit_score_black_24dp (1)" xmlns="http://www.w3.org/2000/svg" width="31.5" height="31.5" viewBox="0 0 31.5 31.5">
  <g id="Group_44" data-name="Group 44">
    <path id="Path_216" data-name="Path 216" d="M0,0H31.5V31.5H0Z" fill="none"/>
  </g>
  <g id="Group_45" data-name="Group 45" transform="translate(2.625 5.25)">
    <path id="Path_217" data-name="Path 217" d="M25.625,4h-21A2.6,2.6,0,0,0,2.013,6.625L2,22.375A2.616,2.616,0,0,0,4.625,25h6.563V22.375H4.625V14.5H28.25V6.625A2.616,2.616,0,0,0,25.625,4Zm0,5.25h-21V6.625h21ZM18.971,23.911,15.256,20.2l-1.851,1.851,5.565,5.578,9.279-9.279L26.4,16.5Z" transform="translate(-2 -4)" fill="#5fb77f"/>
  </g>
</svg>
