<svg id="receipt_black_24dp" xmlns="http://www.w3.org/2000/svg" width="31" height="31" viewBox="0 0 31 31">
  <path id="Path_151" data-name="Path 151" d="M0,0H31V31H0Z" fill="none"/>
  <path id="Path_152" data-name="Path 152" d="M24.313,3.937,22.375,2,20.438,3.937,18.5,2,16.563,3.937,14.625,2,12.688,3.937,10.75,2,8.813,3.937,6.875,2,4.938,3.937,3,2V27.833L4.938,25.9l1.938,1.938L8.813,25.9l1.938,1.938L12.688,25.9l1.938,1.938L16.563,25.9,18.5,27.833,20.438,25.9l1.938,1.938L24.313,25.9l1.938,1.938V2Zm-.646,20.137H5.583V5.759H23.667ZM6.875,18.792h15.5v2.583H6.875Zm0-5.167h15.5v2.583H6.875Zm0-5.167h15.5v2.583H6.875Z" transform="translate(0.875 0.583)"/>
</svg>
