<svg id="request_quote_black_24dp" xmlns="http://www.w3.org/2000/svg" width="60" height="60" viewBox="0 0 60 60">
  <rect id="Rectangle_326" data-name="Rectangle 326" width="60" height="60" fill="none"/>
  <path id="Path_157" data-name="Path 157" d="M29,2H9A5.015,5.015,0,0,0,4,7V47a5.015,5.015,0,0,0,5,5H39a5.015,5.015,0,0,0,5-5V17ZM9,47V7H26.5V17H39V47Zm12.5-2.5h5V42H29a2.507,2.507,0,0,0,2.5-2.5V32A2.507,2.507,0,0,0,29,29.5H21.5V27h10V22h-5V19.5h-5V22H19a2.507,2.507,0,0,0-2.5,2.5V32A2.507,2.507,0,0,0,19,34.5h7.5V37h-10v5h5Z" transform="translate(6 3)" fill="#fff"/>
</svg>
